<svg xmlns="http://www.w3.org/2000/svg" xmlns:xlink="http://www.w3.org/1999/xlink" contentStyleType="text/css" height="752px" preserveAspectRatio="none" style="width:362px;height:752px;" version="1.1" viewBox="0 0 362 752" width="362px" zoomAndPan="magnify"><defs/><g><rect fill="none" height="242.6016" style="stroke:#000000;stroke-width:1.5;" width="272.8022" x="82.4697" y="299.0938"/><line style="stroke:#181818;stroke-width:0.5;stroke-dasharray:5.0,5.0;" x1="23" x2="23" y1="81.2969" y2="672.0938"/><line style="stroke:#181818;stroke-width:0.5;stroke-dasharray:5.0,5.0;" x1="154.4697" x2="154.4697" y1="81.2969" y2="672.0938"/><text fill="#000000" font-family="sans-serif" font-size="14" lengthAdjust="spacing" textLength="31.9102" x="5" y="77.9951">User</text><ellipse cx="23.9551" cy="13.5" fill="#E2E2F0" rx="8" ry="8" style="stroke:#181818;stroke-width:0.5;"/><path d="M23.9551,21.5 L23.9551,48.5 M10.9551,29.5 L36.9551,29.5 M23.9551,48.5 L10.9551,63.5 M23.9551,48.5 L36.9551,63.5 " fill="none" style="stroke:#181818;stroke-width:0.5;"/><text fill="#000000" font-family="sans-serif" font-size="14" lengthAdjust="spacing" textLength="31.9102" x="5" y="684.0889">User</text><ellipse cx="23.9551" cy="695.8906" fill="#E2E2F0" rx="8" ry="8" style="stroke:#181818;stroke-width:0.5;"/><path d="M23.9551,703.8906 L23.9551,730.8906 M10.9551,711.8906 L36.9551,711.8906 M23.9551,730.8906 L10.9551,745.8906 M23.9551,730.8906 L36.9551,745.8906 " fill="none" style="stroke:#181818;stroke-width:0.5;"/><rect fill="#E2E2F0" height="30.2969" rx="2.5" ry="2.5" style="stroke:#181818;stroke-width:0.5;" width="125.4326" x="92.4697" y="50"/><text fill="#000000" font-family="sans-serif" font-size="14" lengthAdjust="spacing" textLength="111.4326" x="99.4697" y="69.9951">Morning routine</text><rect fill="#E2E2F0" height="30.2969" rx="2.5" ry="2.5" style="stroke:#181818;stroke-width:0.5;" width="125.4326" x="92.4697" y="671.0938"/><text fill="#000000" font-family="sans-serif" font-size="14" lengthAdjust="spacing" textLength="111.4326" x="99.4697" y="691.0889">Morning routine</text><polygon fill="#181818" points="143.186,108.4297,153.186,112.4297,143.186,116.4297,147.186,112.4297" style="stroke:#181818;stroke-width:1.0;"/><line style="stroke:#181818;stroke-width:1.0;" x1="23.9551" x2="149.186" y1="112.4297" y2="112.4297"/><text fill="#000000" font-family="sans-serif" font-size="13" lengthAdjust="spacing" textLength="56.9702" x="30.9551" y="107.3638">Wake up</text><polygon fill="#181818" points="34.9551,137.5625,24.9551,141.5625,34.9551,145.5625,30.9551,141.5625" style="stroke:#181818;stroke-width:1.0;"/><line style="stroke:#181818;stroke-width:1.0;stroke-dasharray:2.0,2.0;" x1="28.9551" x2="154.186" y1="141.5625" y2="141.5625"/><text fill="#000000" font-family="sans-serif" font-size="13" lengthAdjust="spacing" textLength="88.8418" x="40.9551" y="136.4966">Alarm sounds</text><polygon fill="#181818" points="143.186,166.6953,153.186,170.6953,143.186,174.6953,147.186,170.6953" style="stroke:#181818;stroke-width:1.0;"/><line style="stroke:#181818;stroke-width:1.0;" x1="23.9551" x2="149.186" y1="170.6953" y2="170.6953"/><text fill="#000000" font-family="sans-serif" font-size="13" lengthAdjust="spacing" textLength="43.7925" x="30.9551" y="165.6294">Get up</text><line style="stroke:#181818;stroke-width:1.0;" x1="155.186" x2="197.186" y1="199.8281" y2="199.8281"/><line style="stroke:#181818;stroke-width:1.0;" x1="197.186" x2="197.186" y1="199.8281" y2="212.8281"/><line style="stroke:#181818;stroke-width:1.0;" x1="156.186" x2="197.186" y1="212.8281" y2="212.8281"/><polygon fill="#181818" points="166.186,208.8281,156.186,212.8281,166.186,216.8281,162.186,212.8281" style="stroke:#181818;stroke-width:1.0;"/><text fill="#000000" font-family="sans-serif" font-size="13" lengthAdjust="spacing" textLength="86.2837" x="162.186" y="194.7622">Go to shower</text><line style="stroke:#181818;stroke-width:1.0;" x1="155.186" x2="197.186" y1="241.9609" y2="241.9609"/><line style="stroke:#181818;stroke-width:1.0;" x1="197.186" x2="197.186" y1="241.9609" y2="254.9609"/><line style="stroke:#181818;stroke-width:1.0;" x1="156.186" x2="197.186" y1="254.9609" y2="254.9609"/><polygon fill="#181818" points="166.186,250.9609,156.186,254.9609,166.186,258.9609,162.186,254.9609" style="stroke:#181818;stroke-width:1.0;"/><text fill="#000000" font-family="sans-serif" font-size="13" lengthAdjust="spacing" textLength="62.4419" x="162.186" y="236.895">Get dress</text><polygon fill="#181818" points="143.186,280.0938,153.186,284.0938,143.186,288.0938,147.186,284.0938" style="stroke:#181818;stroke-width:1.0;"/><line style="stroke:#181818;stroke-width:1.0;" x1="23.9551" x2="149.186" y1="284.0938" y2="284.0938"/><text fill="#000000" font-family="sans-serif" font-size="13" lengthAdjust="spacing" textLength="107.231" x="30.9551" y="279.0278">Evaluate hunger</text><path d="M82.4697,299.0938 L146.9126,299.0938 L146.9126,306.2266 L136.9126,316.2266 L82.4697,316.2266 L82.4697,299.0938 " fill="#EEEEEE" style="stroke:#000000;stroke-width:1.5;"/><rect fill="none" height="242.6016" style="stroke:#000000;stroke-width:1.5;" width="272.8022" x="82.4697" y="299.0938"/><text fill="#000000" font-family="sans-serif" font-size="13" font-weight="bold" lengthAdjust="spacing" textLength="19.4429" x="97.4697" y="312.1606">alt</text><text fill="#000000" font-family="sans-serif" font-size="11" font-weight="bold" lengthAdjust="spacing" textLength="105.9932" x="161.9126" y="311.3042">[Hunger = "Yes"]</text><line style="stroke:#181818;stroke-width:1.0;" x1="155.186" x2="197.186" y1="337.3594" y2="337.3594"/><line style="stroke:#181818;stroke-width:1.0;" x1="197.186" x2="197.186" y1="337.3594" y2="350.3594"/><line style="stroke:#181818;stroke-width:1.0;" x1="156.186" x2="197.186" y1="350.3594" y2="350.3594"/><polygon fill="#181818" points="166.186,346.3594,156.186,350.3594,166.186,354.3594,162.186,350.3594" style="stroke:#181818;stroke-width:1.0;"/><text fill="#000000" font-family="sans-serif" font-size="13" lengthAdjust="spacing" textLength="117.0444" x="162.186" y="332.2935">Prepare Breakfast</text><line style="stroke:#181818;stroke-width:1.0;" x1="155.186" x2="197.186" y1="379.4922" y2="379.4922"/><line style="stroke:#181818;stroke-width:1.0;" x1="197.186" x2="197.186" y1="379.4922" y2="392.4922"/><line style="stroke:#181818;stroke-width:1.0;" x1="156.186" x2="197.186" y1="392.4922" y2="392.4922"/><polygon fill="#181818" points="166.186,388.4922,156.186,392.4922,166.186,396.4922,162.186,392.4922" style="stroke:#181818;stroke-width:1.0;"/><text fill="#000000" font-family="sans-serif" font-size="13" lengthAdjust="spacing" textLength="87.2041" x="162.186" y="374.4263">Go to kitchen</text><line style="stroke:#181818;stroke-width:1.0;" x1="155.186" x2="197.186" y1="421.625" y2="421.625"/><line style="stroke:#181818;stroke-width:1.0;" x1="197.186" x2="197.186" y1="421.625" y2="434.625"/><line style="stroke:#181818;stroke-width:1.0;" x1="156.186" x2="197.186" y1="434.625" y2="434.625"/><polygon fill="#181818" points="166.186,430.625,156.186,434.625,166.186,438.625,162.186,434.625" style="stroke:#181818;stroke-width:1.0;"/><text fill="#000000" font-family="sans-serif" font-size="13" lengthAdjust="spacing" textLength="181.0859" x="162.186" y="416.5591">Prepare toast, eggs and tea</text><line style="stroke:#181818;stroke-width:1.0;" x1="155.186" x2="197.186" y1="463.7578" y2="463.7578"/><line style="stroke:#181818;stroke-width:1.0;" x1="197.186" x2="197.186" y1="463.7578" y2="476.7578"/><line style="stroke:#181818;stroke-width:1.0;" x1="156.186" x2="197.186" y1="476.7578" y2="476.7578"/><polygon fill="#181818" points="166.186,472.7578,156.186,476.7578,166.186,480.7578,162.186,476.7578" style="stroke:#181818;stroke-width:1.0;"/><text fill="#000000" font-family="sans-serif" font-size="13" lengthAdjust="spacing" textLength="21.2773" x="162.186" y="458.6919">Eat</text><line style="stroke:#000000;stroke-width:1.0;stroke-dasharray:2.0,2.0;" x1="82.4697" x2="355.272" y1="485.7578" y2="485.7578"/><text fill="#000000" font-family="sans-serif" font-size="11" font-weight="bold" lengthAdjust="spacing" textLength="100.7832" x="87.4697" y="495.9683">[Hunger = "No"]</text><line style="stroke:#181818;stroke-width:1.0;" x1="155.186" x2="197.186" y1="520.6953" y2="520.6953"/><line style="stroke:#181818;stroke-width:1.0;" x1="197.186" x2="197.186" y1="520.6953" y2="533.6953"/><line style="stroke:#181818;stroke-width:1.0;" x1="156.186" x2="197.186" y1="533.6953" y2="533.6953"/><polygon fill="#181818" points="166.186,529.6953,156.186,533.6953,166.186,537.6953,162.186,533.6953" style="stroke:#181818;stroke-width:1.0;"/><text fill="#000000" font-family="sans-serif" font-size="13" lengthAdjust="spacing" textLength="169.5396" x="162.186" y="515.6294">go directly to the elevator</text><line style="stroke:#181818;stroke-width:1.0;" x1="155.186" x2="197.186" y1="569.8281" y2="569.8281"/><line style="stroke:#181818;stroke-width:1.0;" x1="197.186" x2="197.186" y1="569.8281" y2="582.8281"/><line style="stroke:#181818;stroke-width:1.0;" x1="156.186" x2="197.186" y1="582.8281" y2="582.8281"/><polygon fill="#181818" points="166.186,578.8281,156.186,582.8281,166.186,586.8281,162.186,582.8281" style="stroke:#181818;stroke-width:1.0;"/><text fill="#000000" font-family="sans-serif" font-size="13" lengthAdjust="spacing" textLength="109.332" x="162.186" y="564.7622">Wait for elevator</text><line style="stroke:#181818;stroke-width:1.0;" x1="155.186" x2="197.186" y1="611.9609" y2="611.9609"/><line style="stroke:#181818;stroke-width:1.0;" x1="197.186" x2="197.186" y1="611.9609" y2="624.9609"/><line style="stroke:#181818;stroke-width:1.0;" x1="156.186" x2="197.186" y1="624.9609" y2="624.9609"/><polygon fill="#181818" points="166.186,620.9609,156.186,624.9609,166.186,628.9609,162.186,624.9609" style="stroke:#181818;stroke-width:1.0;"/><text fill="#000000" font-family="sans-serif" font-size="13" lengthAdjust="spacing" textLength="92.4727" x="162.186" y="606.895">enter elevator</text><polygon fill="#181818" points="34.9551,650.0938,24.9551,654.0938,34.9551,658.0938,30.9551,654.0938" style="stroke:#181818;stroke-width:1.0;"/><line style="stroke:#181818;stroke-width:1.0;stroke-dasharray:2.0,2.0;" x1="28.9551" x2="154.186" y1="654.0938" y2="654.0938"/><text fill="#000000" font-family="sans-serif" font-size="13" lengthAdjust="spacing" textLength="101.2896" x="40.9551" y="649.0278">Get on elevator</text><!--SRC=[RL5DIyGm4BtdLpnwTl-0eA2owCL5A6NnEBQpRMXsKYRJ5V-zgPQQ1M-Jzp6FUKcZbucKplYWTkmrpj8znH0LfYGfKopc7BMMeIQnWX8Qbt7phPz83DLhLF7I8vlD2rUBf7QkmUuUDMvnf94nJwx6BYDDHXu2wHbf2Kk5y9bjrQtl28j8G_naBT2iwfHJwTnVACnaZ66MFeif65v-HjoXUkTKEM3RyAQy78P7PHfFbAmaVqD7R-t0yf_BOdRSWFi-WQI3CPMoFPdZaBZ8FyIh-3wYyygjXQyboWO61xvGhjYnTExlr2Dvmoatl_4RbR-5h_6rswMUA1lp3G00]--></g></svg>