<svg xmlns="http://www.w3.org/2000/svg" xmlns:xlink="http://www.w3.org/1999/xlink" contentStyleType="text/css" height="480px" preserveAspectRatio="none" style="width:555px;height:480px;" version="1.1" viewBox="0 0 555 480" width="555px" zoomAndPan="magnify"><defs/><g><ellipse cx="62.94" cy="16" fill="#222222" rx="10" ry="10" style="stroke:#222222;stroke-width:1.0;"/><g id="TakeElevator"><rect fill="#F1F1F1" height="50" rx="12.5" ry="12.5" style="stroke:#181818;stroke-width:0.5;" width="111.875" x="7" y="87"/><line style="stroke:#181818;stroke-width:0.5;" x1="7" x2="118.875" y1="113.2969" y2="113.2969"/><text fill="#000000" font-family="sans-serif" font-size="14" lengthAdjust="spacing" textLength="91.875" x="17" y="104.9951">TakeElevator</text></g><g id="FirstFloor"><rect fill="#F1F1F1" height="50" rx="12.5" ry="12.5" style="stroke:#181818;stroke-width:0.5;" width="85.3105" x="336.28" y="87"/><line style="stroke:#181818;stroke-width:0.5;" x1="336.28" x2="421.5905" y1="113.2969" y2="113.2969"/><text fill="#000000" font-family="sans-serif" font-size="14" lengthAdjust="spacing" textLength="65.3105" x="346.28" y="104.9951">FirstFloor</text></g><g id="ExitBuilding"><rect fill="#F1F1F1" height="50" rx="12.5" ry="12.5" style="stroke:#181818;stroke-width:0.5;" width="103.3027" x="327.29" y="214"/><line style="stroke:#181818;stroke-width:0.5;" x1="327.29" x2="430.5927" y1="240.2969" y2="240.2969"/><text fill="#000000" font-family="sans-serif" font-size="14" lengthAdjust="spacing" textLength="83.3027" x="337.29" y="231.9951">ExitBuilding</text></g><g id="WalkToUniversity"><rect fill="#F1F1F1" height="50" rx="12.5" ry="12.5" style="stroke:#181818;stroke-width:0.5;" width="142.1582" x="68.86" y="214"/><line style="stroke:#181818;stroke-width:0.5;" x1="68.86" x2="211.0182" y1="240.2969" y2="240.2969"/><text fill="#000000" font-family="sans-serif" font-size="14" lengthAdjust="spacing" textLength="122.1582" x="78.86" y="231.9951">WalkToUniversity</text></g><g id="ArriveUniversity"><rect fill="#F1F1F1" height="50" rx="12.5" ry="12.5" style="stroke:#181818;stroke-width:0.5;" width="132.499" x="73.69" y="341"/><line style="stroke:#181818;stroke-width:0.5;" x1="73.69" x2="206.189" y1="367.2969" y2="367.2969"/><text fill="#000000" font-family="sans-serif" font-size="14" lengthAdjust="spacing" textLength="112.499" x="83.69" y="358.9951">ArriveUniversity</text></g><g id="WalkToClassroom"><rect fill="#F1F1F1" height="50" rx="12.5" ry="12.5" style="stroke:#181818;stroke-width:0.5;" width="144.8926" x="386.49" y="341"/><line style="stroke:#181818;stroke-width:0.5;" x1="386.49" x2="531.3826" y1="367.2969" y2="367.2969"/><text fill="#000000" font-family="sans-serif" font-size="14" lengthAdjust="spacing" textLength="124.8926" x="396.49" y="358.9951">WalkToClassroom</text></g><ellipse cx="458.94" cy="463" fill="none" rx="11" ry="11" style="stroke:#222222;stroke-width:1.0;"/><ellipse cx="458.94" cy="463" fill="#222222" rx="6" ry="6" style="stroke:#222222;stroke-width:1.0;"/><!--link *start* to TakeElevator--><g id="link_*start*_TakeElevator"><path d="M62.94,26.36 C62.94,40.29 62.94,60.95 62.94,80.65 " fill="none" id="*start*-to-TakeElevator" style="stroke:#181818;stroke-width:1.0;"/><polygon fill="#181818" points="62.94,86.65,66.94,77.65,62.94,81.65,58.94,77.65,62.94,86.65" style="stroke:#181818;stroke-width:1.0;"/></g><!--link TakeElevator to FirstFloor--><g id="link_TakeElevator_FirstFloor"><path d="M119.07,112 C181.14,112 273.79,112 330,112 " fill="none" id="TakeElevator-to-FirstFloor" style="stroke:#181818;stroke-width:1.0;"/><polygon fill="#181818" points="336,112,327,108,331,112,327,116,336,112" style="stroke:#181818;stroke-width:1.0;"/><text fill="#000000" font-family="sans-serif" font-size="13" lengthAdjust="spacing" textLength="181.4224" x="137.08" y="105.0669">Eletor arrives to fourth floor</text></g><!--link FirstFloor to ExitBuilding--><g id="link_FirstFloor_ExitBuilding"><path d="M378.94,137.4 C378.94,159.42 378.94,185.66 378.94,207.66 " fill="none" id="FirstFloor-to-ExitBuilding" style="stroke:#181818;stroke-width:1.0;"/><polygon fill="#181818" points="378.94,213.66,382.94,204.66,378.94,208.66,374.94,204.66,378.94,213.66" style="stroke:#181818;stroke-width:1.0;"/><text fill="#000000" font-family="sans-serif" font-size="13" lengthAdjust="spacing" textLength="167.5083" x="379.94" y="180.0669">Walk to building entrance</text></g><!--reverse link WalkToUniversity to ExitBuilding--><g id="link_WalkToUniversity_ExitBuilding"><path d="M217.32,239 C254.46,239 293.04,239 326.89,239 " fill="none" id="WalkToUniversity-backto-ExitBuilding" style="stroke:#181818;stroke-width:1.0;"/><polygon fill="#181818" points="211.32,239,220.32,243,216.32,239,220.32,235,211.32,239" style="stroke:#181818;stroke-width:1.0;"/><text fill="#000000" font-family="sans-serif" font-size="13" lengthAdjust="spacing" textLength="80.8184" x="229.15" y="232.0669">Exit building</text></g><!--link WalkToUniversity to ArriveUniversity--><g id="link_WalkToUniversity_ArriveUniversity"><path d="M139.94,264.4 C139.94,286.42 139.94,312.66 139.94,334.66 " fill="none" id="WalkToUniversity-to-ArriveUniversity" style="stroke:#181818;stroke-width:1.0;"/><polygon fill="#181818" points="139.94,340.66,143.94,331.66,139.94,335.66,135.94,331.66,139.94,340.66" style="stroke:#181818;stroke-width:1.0;"/><text fill="#000000" font-family="sans-serif" font-size="13" lengthAdjust="spacing" textLength="156.7554" x="140.94" y="307.0669">Arrives at the university</text></g><!--link ArriveUniversity to WalkToClassroom--><g id="link_ArriveUniversity_WalkToClassroom"><path d="M206.42,366 C258.92,366 326.08,366 380.14,366 " fill="none" id="ArriveUniversity-to-WalkToClassroom" style="stroke:#181818;stroke-width:1.0;"/><polygon fill="#181818" points="386.14,366,377.14,362,381.14,366,377.14,370,386.14,366" style="stroke:#181818;stroke-width:1.0;"/><text fill="#000000" font-family="sans-serif" font-size="13" lengthAdjust="spacing" textLength="144.9297" x="224.34" y="359.0669">Walk to the classroom</text></g><!--link WalkToClassroom to *end*--><g id="link_WalkToClassroom_*end*"><path d="M458.94,391.46 C458.94,411.04 458.94,431.49 458.94,445.8 " fill="none" id="WalkToClassroom-to-*end*" style="stroke:#181818;stroke-width:1.0;"/><polygon fill="#181818" points="458.94,451.8,462.94,442.8,458.94,446.8,454.94,442.8,458.94,451.8" style="stroke:#181818;stroke-width:1.0;"/></g><!--SRC=[PP1D2W8n38NtEKLsWZ0NS26ew0aK5-8YZbNBr4RIZEZjJVmPHbqcxtjvhorDp1SIEkEEwkOetERzZ1CBgb0k9eMiC2WTbc8EUhy4PD4J3m0smorMrHYNr8Hv2bTI5kWFM8d9YoX55ubj7g59Bf18l8Q2odZWrkxXmG7eiNvvVeiwRMFQntmqyvfIuvRTPsKDhMiTu0kiabcTNV8gMuoKg7VFDgZpmX_WWPDdho_Nv5sL5FKKiEqq-8EVpttTdIKgHPZFlTfkhpzx-EKytdxq0G00]--></g></svg>