<svg xmlns="http://www.w3.org/2000/svg" xmlns:xlink="http://www.w3.org/1999/xlink" contentStyleType="text/css" height="308px" preserveAspectRatio="none" style="width:686px;height:308px;" version="1.1" viewBox="0 0 686 308" width="686px" zoomAndPan="magnify"><defs/><g><line style="stroke:#181818;stroke-width:0.5;stroke-dasharray:5.0,5.0;" x1="27" x2="27" y1="36.2969" y2="273.2266"/><line style="stroke:#181818;stroke-width:0.5;stroke-dasharray:5.0,5.0;" x1="164.3179" x2="164.3179" y1="36.2969" y2="273.2266"/><line style="stroke:#181818;stroke-width:0.5;stroke-dasharray:5.0,5.0;" x1="392.9448" x2="392.9448" y1="36.2969" y2="273.2266"/><line style="stroke:#181818;stroke-width:0.5;stroke-dasharray:5.0,5.0;" x1="479.896" x2="479.896" y1="36.2969" y2="273.2266"/><rect fill="#E2E2F0" height="30.2969" rx="2.5" ry="2.5" style="stroke:#181818;stroke-width:0.5;" width="45.9102" x="5" y="5"/><text fill="#000000" font-family="sans-serif" font-size="14" lengthAdjust="spacing" textLength="31.9102" x="12" y="24.9951">User</text><rect fill="#E2E2F0" height="30.2969" rx="2.5" ry="2.5" style="stroke:#181818;stroke-width:0.5;" width="45.9102" x="5" y="272.2266"/><text fill="#000000" font-family="sans-serif" font-size="14" lengthAdjust="spacing" textLength="31.9102" x="12" y="292.2217">User</text><rect fill="#E2E2F0" height="30.2969" rx="2.5" ry="2.5" style="stroke:#181818;stroke-width:0.5;" width="66.6162" x="131.3179" y="5"/><text fill="#000000" font-family="sans-serif" font-size="14" lengthAdjust="spacing" textLength="52.6162" x="138.3179" y="24.9951">Kitchen</text><rect fill="#E2E2F0" height="30.2969" rx="2.5" ry="2.5" style="stroke:#181818;stroke-width:0.5;" width="66.6162" x="131.3179" y="272.2266"/><text fill="#000000" font-family="sans-serif" font-size="14" lengthAdjust="spacing" textLength="52.6162" x="138.3179" y="292.2217">Kitchen</text><rect fill="#E2E2F0" height="30.2969" rx="2.5" ry="2.5" style="stroke:#181818;stroke-width:0.5;" width="80.9512" x="352.9448" y="5"/><text fill="#000000" font-family="sans-serif" font-size="14" lengthAdjust="spacing" textLength="66.9512" x="359.9448" y="24.9951">Breakfast</text><rect fill="#E2E2F0" height="30.2969" rx="2.5" ry="2.5" style="stroke:#181818;stroke-width:0.5;" width="80.9512" x="352.9448" y="272.2266"/><text fill="#000000" font-family="sans-serif" font-size="14" lengthAdjust="spacing" textLength="66.9512" x="359.9448" y="292.2217">Breakfast</text><rect fill="#E2E2F0" height="30.2969" rx="2.5" ry="2.5" style="stroke:#181818;stroke-width:0.5;" width="72.0234" x="443.896" y="5"/><text fill="#000000" font-family="sans-serif" font-size="14" lengthAdjust="spacing" textLength="58.0234" x="450.896" y="24.9951">Elevator</text><rect fill="#E2E2F0" height="30.2969" rx="2.5" ry="2.5" style="stroke:#181818;stroke-width:0.5;" width="72.0234" x="443.896" y="272.2266"/><text fill="#000000" font-family="sans-serif" font-size="14" lengthAdjust="spacing" textLength="58.0234" x="450.896" y="292.2217">Elevator</text><polygon fill="#181818" points="152.626,63.4297,162.626,67.4297,152.626,71.4297,156.626,67.4297" style="stroke:#181818;stroke-width:1.0;"/><line style="stroke:#181818;stroke-width:1.0;" x1="27.9551" x2="158.626" y1="67.4297" y2="67.4297"/><text fill="#000000" font-family="sans-serif" font-size="13" lengthAdjust="spacing" textLength="112.6709" x="34.9551" y="62.3638">Go to the kitchen</text><polygon fill="#181818" points="381.4204,92.5625,391.4204,96.5625,381.4204,100.5625,385.4204,96.5625" style="stroke:#181818;stroke-width:1.0;"/><line style="stroke:#181818;stroke-width:1.0;" x1="164.626" x2="387.4204" y1="96.5625" y2="96.5625"/><text fill="#000000" font-family="sans-serif" font-size="13" lengthAdjust="spacing" textLength="202.4268" x="171.626" y="91.4966">Call prepare breakfast function</text><polygon fill="#181818" points="175.626,121.6953,165.626,125.6953,175.626,129.6953,171.626,125.6953" style="stroke:#181818;stroke-width:1.0;"/><line style="stroke:#181818;stroke-width:1.0;" x1="169.626" x2="392.4204" y1="125.6953" y2="125.6953"/><text fill="#000000" font-family="sans-serif" font-size="13" lengthAdjust="spacing" textLength="204.7944" x="181.626" y="120.6294">Toasts with eggs and tea ready</text><polygon fill="#181818" points="381.4204,150.8281,391.4204,154.8281,381.4204,158.8281,385.4204,154.8281" style="stroke:#181818;stroke-width:1.0;"/><line style="stroke:#181818;stroke-width:1.0;" x1="27.9551" x2="387.4204" y1="154.8281" y2="154.8281"/><text fill="#000000" font-family="sans-serif" font-size="13" lengthAdjust="spacing" textLength="86.9121" x="34.9551" y="149.7622">Eat breakfast</text><polygon fill="#181818" points="467.9077,179.9609,477.9077,183.9609,467.9077,187.9609,471.9077,183.9609" style="stroke:#181818;stroke-width:1.0;"/><line style="stroke:#181818;stroke-width:1.0;" x1="27.9551" x2="473.9077" y1="183.9609" y2="183.9609"/><text fill="#000000" font-family="sans-serif" font-size="13" lengthAdjust="spacing" textLength="118.4727" x="34.9551" y="178.895">Go to the elevator</text><line style="stroke:#181818;stroke-width:1.0;" x1="479.9077" x2="521.9077" y1="213.0938" y2="213.0938"/><line style="stroke:#181818;stroke-width:1.0;" x1="521.9077" x2="521.9077" y1="213.0938" y2="226.0938"/><line style="stroke:#181818;stroke-width:1.0;" x1="480.9077" x2="521.9077" y1="226.0938" y2="226.0938"/><polygon fill="#181818" points="490.9077,222.0938,480.9077,226.0938,490.9077,230.0938,486.9077,226.0938" style="stroke:#181818;stroke-width:1.0;"/><text fill="#000000" font-family="sans-serif" font-size="13" lengthAdjust="spacing" textLength="192.7466" x="486.9077" y="208.0278">Call wait for elevator function</text><polygon fill="#181818" points="38.9551,251.2266,28.9551,255.2266,38.9551,259.2266,34.9551,255.2266" style="stroke:#181818;stroke-width:1.0;"/><line style="stroke:#181818;stroke-width:1.0;" x1="32.9551" x2="478.9077" y1="255.2266" y2="255.2266"/><text fill="#000000" font-family="sans-serif" font-size="13" lengthAdjust="spacing" textLength="118.1553" x="44.9551" y="250.1606">Enter the elevator</text><!--SRC=[LP1B3i8m34JtESLSW0kmO052BDZI0vZMj56BKoM6YjjZFcaRALAKcSdu9QdtCbAaEwvKzsqC3saEOGWH6acIMIpgdEtgQp-IAAh44PHG5UhPQzsn5De-ClKtIbgenu6Vf24wLs6ponUnnIb0RNMC_b-MFOlDNHOyq31WZFoXmtKsRW-frGTnIxRelmIJ4YQl7RXj4qWQA1Cithp-EEivHzAb_cTd-0ANyujcjqn-UIVoXcZdd5vurzUgprnH- -9ryni0]--></g></svg>