<svg xmlns="http://www.w3.org/2000/svg" xmlns:xlink="http://www.w3.org/1999/xlink" contentStyleType="text/css" height="750px" preserveAspectRatio="none" style="width:874px;height:750px;" version="1.1" viewBox="0 0 874 750" width="874px" zoomAndPan="magnify"><defs/><g><ellipse cx="323.91" cy="16" fill="#222222" rx="10" ry="10" style="stroke:#222222;stroke-width:1.0;"/><g id="WakeUp"><rect fill="#F1F1F1" height="50" rx="12.5" ry="12.5" style="stroke:#181818;stroke-width:0.5;" width="78.2764" x="284.77" y="103"/><line style="stroke:#181818;stroke-width:0.5;" x1="284.77" x2="363.0464" y1="129.2969" y2="129.2969"/><text fill="#000000" font-family="sans-serif" font-size="14" lengthAdjust="spacing" textLength="58.2764" x="294.77" y="120.9951">WakeUp</text></g><g id="GetUp"><rect fill="#F1F1F1" height="50" rx="12.5" ry="12.5" style="stroke:#181818;stroke-width:0.5;" width="64.085" x="185.87" y="103"/><line style="stroke:#181818;stroke-width:0.5;" x1="185.87" x2="249.955" y1="129.2969" y2="129.2969"/><text fill="#000000" font-family="sans-serif" font-size="14" lengthAdjust="spacing" textLength="44.085" x="195.87" y="120.9951">GetUp</text></g><g id="Shower"><rect fill="#F1F1F1" height="50" rx="12.5" ry="12.5" style="stroke:#181818;stroke-width:0.5;" width="72.1445" x="181.84" y="230"/><line style="stroke:#181818;stroke-width:0.5;" x1="181.84" x2="253.9845" y1="256.2969" y2="256.2969"/><text fill="#000000" font-family="sans-serif" font-size="14" lengthAdjust="spacing" textLength="52.1445" x="191.84" y="247.9951">Shower</text></g><g id="Dress"><rect fill="#F1F1F1" height="50" rx="12.5" ry="12.5" style="stroke:#181818;stroke-width:0.5;" width="59.7373" x="399.04" y="230"/><line style="stroke:#181818;stroke-width:0.5;" x1="399.04" x2="458.7773" y1="256.2969" y2="256.2969"/><text fill="#000000" font-family="sans-serif" font-size="14" lengthAdjust="spacing" textLength="39.7373" x="409.04" y="247.9951">Dress</text></g><g id="EvaluateHungry"><rect fill="#F1F1F1" height="50" rx="12.5" ry="12.5" style="stroke:#181818;stroke-width:0.5;" width="132.3555" x="362.73" y="357"/><line style="stroke:#181818;stroke-width:0.5;" x1="362.73" x2="495.0855" y1="383.2969" y2="383.2969"/><text fill="#000000" font-family="sans-serif" font-size="14" lengthAdjust="spacing" textLength="112.3555" x="372.73" y="374.9951">EvaluateHungry</text></g><g id="PrepareBreakfast"><rect fill="#F1F1F1" height="50" rx="12.5" ry="12.5" style="stroke:#181818;stroke-width:0.5;" width="141.5977" x="726.11" y="484"/><line style="stroke:#181818;stroke-width:0.5;" x1="726.11" x2="867.7077" y1="510.2969" y2="510.2969"/><text fill="#000000" font-family="sans-serif" font-size="14" lengthAdjust="spacing" textLength="121.5977" x="736.11" y="501.9951">PrepareBreakfast</text></g><g id="Kitchen"><rect fill="#F1F1F1" height="50" rx="12.5" ry="12.5" style="stroke:#181818;stroke-width:0.5;" width="72.6162" x="529.6" y="484"/><line style="stroke:#181818;stroke-width:0.5;" x1="529.6" x2="602.2162" y1="510.2969" y2="510.2969"/><text fill="#000000" font-family="sans-serif" font-size="14" lengthAdjust="spacing" textLength="52.6162" x="539.6" y="501.9951">Kitchen</text></g><g id="EatBreakfast"><rect fill="#F1F1F1" height="50" rx="12.5" ry="12.5" style="stroke:#181818;stroke-width:0.5;" width="109.8652" x="250.98" y="484"/><line style="stroke:#181818;stroke-width:0.5;" x1="250.98" x2="360.8452" y1="510.2969" y2="510.2969"/><text fill="#000000" font-family="sans-serif" font-size="14" lengthAdjust="spacing" textLength="89.8652" x="260.98" y="501.9951">EatBreakfast</text></g><g id="GoElevator"><rect fill="#F1F1F1" height="50" rx="12.5" ry="12.5" style="stroke:#181818;stroke-width:0.5;" width="97.4375" x="13.19" y="484"/><line style="stroke:#181818;stroke-width:0.5;" x1="13.19" x2="110.6275" y1="510.2969" y2="510.2969"/><text fill="#000000" font-family="sans-serif" font-size="14" lengthAdjust="spacing" textLength="77.4375" x="23.19" y="501.9951">GoElevator</text></g><g id="WaitElevator"><rect fill="#F1F1F1" height="50" rx="12.5" ry="12.5" style="stroke:#181818;stroke-width:0.5;" width="109.8242" x="7" y="611"/><line style="stroke:#181818;stroke-width:0.5;" x1="7" x2="116.8242" y1="637.2969" y2="637.2969"/><text fill="#000000" font-family="sans-serif" font-size="14" lengthAdjust="spacing" textLength="89.8242" x="17" y="628.9951">WaitElevator</text></g><g id="EnterElevator"><rect fill="#F1F1F1" height="50" rx="12.5" ry="12.5" style="stroke:#181818;stroke-width:0.5;" width="115.6006" x="255.11" y="611"/><line style="stroke:#181818;stroke-width:0.5;" x1="255.11" x2="370.7106" y1="637.2969" y2="637.2969"/><text fill="#000000" font-family="sans-serif" font-size="14" lengthAdjust="spacing" textLength="95.6006" x="265.11" y="628.9951">EnterElevator</text></g><ellipse cx="312.91" cy="733" fill="none" rx="11" ry="11" style="stroke:#222222;stroke-width:1.0;"/><ellipse cx="312.91" cy="733" fill="#222222" rx="6" ry="6" style="stroke:#222222;stroke-width:1.0;"/><!--link *start* to WakeUp--><g id="link_*start*_WakeUp"><path d="M323.91,26.38 C323.91,43.11 323.91,72.59 323.91,96.63 " fill="none" id="*start*-to-WakeUp" style="stroke:#181818;stroke-width:1.0;"/><polygon fill="#181818" points="323.91,102.63,327.91,93.63,323.91,97.63,319.91,93.63,323.91,102.63" style="stroke:#181818;stroke-width:1.0;"/><text fill="#000000" font-family="sans-serif" font-size="13" lengthAdjust="spacing" textLength="88.8418" x="324.91" y="69.0669">Alarm sounds</text></g><!--reverse link GetUp to WakeUp--><g id="link_GetUp_WakeUp"><path d="M256.21,128 C267.63,128 273.05,128 284.47,128 " fill="none" id="GetUp-backto-WakeUp" style="stroke:#181818;stroke-width:1.0;"/><polygon fill="#181818" points="250.21,128,259.21,132,255.21,128,259.21,124,250.21,128" style="stroke:#181818;stroke-width:1.0;"/></g><!--link GetUp to Shower--><g id="link_GetUp_Shower"><path d="M217.91,153.4 C217.91,175.42 217.91,201.66 217.91,223.66 " fill="none" id="GetUp-to-Shower" style="stroke:#181818;stroke-width:1.0;"/><polygon fill="#181818" points="217.91,229.66,221.91,220.66,217.91,224.66,213.91,220.66,217.91,229.66" style="stroke:#181818;stroke-width:1.0;"/><text fill="#000000" font-family="sans-serif" font-size="13" lengthAdjust="spacing" textLength="86.2837" x="218.91" y="196.0669">Go to shower</text></g><!--link Shower to Dress--><g id="link_Shower_Dress"><path d="M254.18,255 C294.95,255 354.41,255 392.58,255 " fill="none" id="Shower-to-Dress" style="stroke:#181818;stroke-width:1.0;"/><polygon fill="#181818" points="398.58,255,389.58,251,393.58,255,389.58,259,398.58,255" style="stroke:#181818;stroke-width:1.0;"/><text fill="#000000" font-family="sans-serif" font-size="13" lengthAdjust="spacing" textLength="109.1289" x="272.01" y="248.0669">Finish showering</text></g><!--link Dress to EvaluateHungry--><g id="link_Dress_EvaluateHungry"><path d="M428.91,280.4 C428.91,302.42 428.91,328.66 428.91,350.66 " fill="none" id="Dress-to-EvaluateHungry" style="stroke:#181818;stroke-width:1.0;"/><polygon fill="#181818" points="428.91,356.66,432.91,347.66,428.91,351.66,424.91,347.66,428.91,356.66" style="stroke:#181818;stroke-width:1.0;"/><text fill="#000000" font-family="sans-serif" font-size="13" lengthAdjust="spacing" textLength="98.2998" x="429.91" y="323.0669">"Am i hungry?"</text></g><!--link EvaluateHungry to PrepareBreakfast--><g id="link_EvaluateHungry_PrepareBreakfast"><path d="M495.55,405.64 C560.59,427.73 653.519,459.2896 720.059,481.8996 " fill="none" id="EvaluateHungry-to-PrepareBreakfast" style="stroke:#181818;stroke-width:1.0;"/><polygon fill="#181818" points="725.74,483.83,718.5054,477.1471,721.0058,482.2214,715.9316,484.7218,725.74,483.83" style="stroke:#181818;stroke-width:1.0;"/><text fill="#000000" font-family="sans-serif" font-size="13" lengthAdjust="spacing" textLength="22.7119" x="635.94" y="450.0669">Yes</text></g><!--reverse link Kitchen to PrepareBreakfast--><g id="link_Kitchen_PrepareBreakfast"><path d="M608.51,509 C641.59,509 685.2,509 726.03,509 " fill="none" id="Kitchen-backto-PrepareBreakfast" style="stroke:#181818;stroke-width:1.0;"/><polygon fill="#181818" points="602.51,509,611.51,513,607.51,509,611.51,505,602.51,509" style="stroke:#181818;stroke-width:1.0;"/><text fill="#000000" font-family="sans-serif" font-size="13" lengthAdjust="spacing" textLength="87.2041" x="620.67" y="502.0669">Go to kitchen</text></g><!--reverse link EatBreakfast to Kitchen--><g id="link_EatBreakfast_Kitchen"><path d="M367.05,509 C417.73,509 485.44,509 529.25,509 " fill="none" id="EatBreakfast-backto-Kitchen" style="stroke:#181818;stroke-width:1.0;"/><polygon fill="#181818" points="361.05,509,370.05,513,366.05,509,370.05,505,361.05,509" style="stroke:#181818;stroke-width:1.0;"/><text fill="#000000" font-family="sans-serif" font-size="13" lengthAdjust="spacing" textLength="132.1138" x="379.22" y="502.0669">Toast, Eggs and Tea</text></g><!--reverse link GoElevator to EatBreakfast--><g id="link_GoElevator_EatBreakfast"><path d="M117,509 C157.35,509 208.53,509 250.52,509 " fill="none" id="GoElevator-backto-EatBreakfast" style="stroke:#181818;stroke-width:1.0;"/><polygon fill="#181818" points="111,509,120,513,116,509,120,505,111,509" style="stroke:#181818;stroke-width:1.0;"/><text fill="#000000" font-family="sans-serif" font-size="13" lengthAdjust="spacing" textLength="104.2539" x="128.81" y="502.0669">Finish Breakfast</text></g><!--link EvaluateHungry to GoElevator--><g id="link_EvaluateHungry_GoElevator"><path d="M362.45,405.64 C289.95,430.33 181.2896,467.3456 116.5496,489.3956 " fill="none" id="EvaluateHungry-to-GoElevator" style="stroke:#181818;stroke-width:1.0;"/><polygon fill="#181818" points="110.87,491.33,120.679,492.2148,115.603,489.718,118.0998,484.6419,110.87,491.33" style="stroke:#181818;stroke-width:1.0;"/><text fill="#000000" font-family="sans-serif" font-size="13" lengthAdjust="spacing" textLength="17.6782" x="268.39" y="450.0669">No</text></g><!--link GoElevator to WaitElevator--><g id="link_GoElevator_WaitElevator"><path d="M61.91,534.4 C61.91,556.42 61.91,582.66 61.91,604.66 " fill="none" id="GoElevator-to-WaitElevator" style="stroke:#181818;stroke-width:1.0;"/><polygon fill="#181818" points="61.91,610.66,65.91,601.66,61.91,605.66,57.91,601.66,61.91,610.66" style="stroke:#181818;stroke-width:1.0;"/><text fill="#000000" font-family="sans-serif" font-size="13" lengthAdjust="spacing" textLength="139.5342" x="62.91" y="577.0669">Press elevator button</text></g><!--link WaitElevator to EnterElevator--><g id="link_WaitElevator_EnterElevator"><path d="M117.31,636 C158.16,636 207.61,636 249.04,636 " fill="none" id="WaitElevator-to-EnterElevator" style="stroke:#181818;stroke-width:1.0;"/><polygon fill="#181818" points="255.04,636,246.04,632,250.04,636,246.04,640,255.04,636" style="stroke:#181818;stroke-width:1.0;"/><text fill="#000000" font-family="sans-serif" font-size="13" lengthAdjust="spacing" textLength="102.7432" x="134.97" y="629.0669">Elevator arrives</text></g><!--link EnterElevator to *end*--><g id="link_EnterElevator_*end*"><path d="M312.91,661.46 C312.91,681.04 312.91,701.49 312.91,715.8 " fill="none" id="EnterElevator-to-*end*" style="stroke:#181818;stroke-width:1.0;"/><polygon fill="#181818" points="312.91,721.8,316.91,712.8,312.91,716.8,308.91,712.8,312.91,721.8" style="stroke:#181818;stroke-width:1.0;"/></g><!--SRC=[RP71JiCm38RlVWfhbqc8lW07q80o92GqYKq88GxUPjgeRL8vRj7UdZJjIWjSalZFzpksumjZQnAgS4-78XFNsEETAvsW2baVhjWgBFs8bSQodcf69vgx9RnVV62INECh5RohyGfN9Kc5lalaOL2JCX1hrbqDSOsEbznziGJ7sg4wz364GKqa4FV2tWVWmLZZyu4mDeF-eakIjbGsfFpOs4nEWLsiAZIOn_1c0V0Bw3mRuQwlMs4gFibhSBsnXpzohFh9w25dEvPPz36SzGYbfDDiMnVsIqopp2FP8swPO8Rqyt1foIsfavyMH-JVmcUEPmSm4Ve_C3eXDd5AV1RsZQgpC8FYc5EhB1FVU2GHquR9p87kfV3htm00]--></g></svg>